<svg width="99" height="92" viewBox="0 0 99 92" fill="none" xmlns="http://www.w3.org/2000/svg">
<circle cx="40" cy="52" r="40" fill="#D74F14"/>
<path d="M92.4186 50.5912H19.6914H19.0302V41.9962C18.5013 26.1284 24.9698 20.178 34.2368 20.178H77.8732C95.0524 20.178 97.7079 32.74 97.7079 41.9962H92.4186V50.5912Z" fill="#E8D3A2"/>
<path d="M32.2231 68.4424H99L98.3388 74.3928C97.6777 78.3597 94.3719 78.3597 90.405 78.3597H38.1736C34.2066 78.3597 32.8843 77.6986 30.9008 76.3762L22.3058 69.7647C19.6612 67.7812 19 66.4589 19 63.8143V55.8804L32.2231 68.4424Z" fill="#E8D3A2"/>
<path d="M32.6311 29.4345C42.2127 29.449 42.2127 38.044 42.8787 42.6727L88.4979 42.6727V48.6231H23.044L23.0411 45.9778L23.0414 44.6556C22.7092 39.3809 23.0957 29.42 32.6311 29.4345Z" fill="#D74F14" stroke="#E8D3A2" stroke-width="1.32231"/>
<path d="M92.0307 53.2357H19L32.2231 65.7977H99L92.0307 53.2357Z" fill="#E8D3A2"/>
<path d="M90.4046 57.2029H29.5781L35.0991 62.4921H93.7104L90.4046 57.2029Z" fill="#D74F14" stroke="#E8D3A2" stroke-width="1.32231"/>
<path d="M73.3955 2.99988L76.9547 10.6852L86.1067 8.14299L83.056 18.3119L92.4138 21.3626L83.056 24.9217L86.1067 34.5822L76.9547 31.0231L73.3955 39.0846L70.8533 31.0231L61.1928 34.5822L63.7351 24.9217L55.165 21.3626L63.7351 18.3119L61.1928 8.14299L70.8533 10.6852L73.3955 2.99988Z" fill="#D74F14"/>
<path d="M76.9547 10.6852L73.3955 2.99988L70.8533 10.6852M76.9547 10.6852L83.056 18.3119M76.9547 10.6852L86.1067 8.14299L83.056 18.3119M70.8533 10.6852L63.7351 18.3119M70.8533 10.6852L61.1928 8.14299L63.7351 18.3119M63.7351 18.3119L55.165 21.3626L63.7351 24.9217M63.7351 24.9217L70.8533 31.0231M63.7351 24.9217L61.1928 34.5822L70.8533 31.0231M70.8533 31.0231L73.3955 39.0846L76.9547 31.0231M76.9547 31.0231L83.056 24.9217M76.9547 31.0231L86.1067 34.5822L83.056 24.9217M83.056 24.9217L92.4138 21.3626L83.056 18.3119" stroke="#E8D3A2" stroke-width="2.03378" stroke-linecap="round"/>
<circle cx="73.3958" cy="21.3629" r="10.0218" fill="#D74F14" stroke="#E8D3A2" stroke-width="2.32805"/>
</svg>
