<svg width="81" height="92" viewBox="0 0 81 92" fill="none" xmlns="http://www.w3.org/2000/svg">
<circle cx="40" cy="52" r="40" fill="#D74F14"/>
<path d="M24 77.1992V37.0732L50.8976 32.2228L80 37.0732V77.1992L50.8976 81.1677L24 77.1992Z" fill="#E8D3A2"/>
<path d="M76.9134 31.3409L67.2126 29.5772C68.9764 27.5194 71.9748 22.1693 69.8583 17.2307C67.2126 11.0575 64.5669 9.73471 60.1575 9.73471C54.3577 9.73471 50.8976 11.9394 47.811 14.5851L42.9606 18.9945L37.6693 25.1678L31.4961 18.9945C43.4016 6.20716 45.0355 5.16336 49.5748 3.12057C58.3937 -0.848179 68.0945 0.827382 75.1496 7.5299C82.2046 14.2323 79.2651 26.6375 76.9134 31.3409Z" fill="#E8D3A2"/>
<path d="M24 77.1992V37.0732L50.8976 32.2228L80 37.0732V77.1992L50.8976 81.1677L24 77.1992Z" stroke="#E8D3A2" stroke-width="1.76378"/>
<path d="M76.9134 31.3409L67.2126 29.5772C68.9764 27.5194 71.9748 22.1693 69.8583 17.2307C67.2126 11.0575 64.5669 9.73471 60.1575 9.73471C54.3577 9.73471 50.8976 11.9394 47.811 14.5851L42.9606 18.9945L37.6693 25.1678L31.4961 18.9945C43.4016 6.20716 45.0355 5.16336 49.5748 3.12057C58.3937 -0.848179 68.0945 0.827382 75.1496 7.5299C82.2046 14.2323 79.2651 26.6375 76.9134 31.3409Z" stroke="#E8D3A2" stroke-width="1.76378"/>
<path d="M51.5303 42.1202C53.7644 42.1202 55.734 42.4876 57.439 43.2225C59.1439 43.9575 60.4668 45.0157 61.4075 46.3973C62.3481 47.7496 62.8185 49.3223 62.8185 51.1155C62.8185 52.2619 62.5686 53.2908 62.0689 54.2021C61.5691 55.084 60.9812 55.8336 60.3051 56.4509C59.629 57.0682 58.7765 57.7443 57.7476 58.4792C56.8951 59.126 56.2631 59.6404 55.8516 60.0225C55.4694 60.4047 55.2783 60.8015 55.2783 61.2131V62.1391H47.7382V59.9344C47.7382 59.2288 47.9586 58.5968 48.3996 58.0383C48.8405 57.4504 49.5313 56.7155 50.472 55.8336C51.4421 54.9811 52.177 54.2168 52.6768 53.5407C53.2059 52.8645 53.4705 52.1149 53.4705 51.2918C53.4705 50.4393 53.2059 49.7191 52.6768 49.1312C52.1476 48.5139 51.4421 48.2052 50.5602 48.2052C48.6495 48.2052 47.6941 49.4399 47.6941 51.9092C47.6941 52.4383 47.7088 52.8351 47.7382 53.0997H39.6248C39.5954 52.8939 39.566 52.6588 39.5366 52.3942C39.5072 52.1296 39.4925 51.8063 39.4925 51.4241C39.4925 49.5428 40.0069 47.9113 41.0358 46.5296C42.0647 45.1186 43.4904 44.0309 45.313 43.2666C47.1649 42.5023 49.2374 42.1202 51.5303 42.1202ZM47.209 72.9863V64.8288H55.9397V72.9863H47.209Z" fill="#D74F14"/>
</svg>
