<svg width="94" height="99" viewBox="0 0 94 99" fill="none" xmlns="http://www.w3.org/2000/svg">
<circle cx="40" cy="59" r="40" fill="#D74F14"/>
<path d="M36.0653 85.3043C14.6109 85.3043 16.9101 79.2046 16.1433 70.8188C15.633 65.2371 16.4848 61.658 18.7109 59.3824C21.8141 56.2101 27.588 55.5709 36.0653 55.5709H68.2469C82.7585 55.571 89.1587 55.0962 91.2126 62.7635C91.7615 64.8124 92 67.4427 92 70.8188C92 85.3039 83.5715 85.3043 69.7794 85.3043H36.0653Z" fill="#D74F14"/>
<path d="M18.7109 59.3824C21.8141 56.2101 27.588 55.5709 36.0653 55.5709H68.2469C82.7585 55.571 89.1587 55.0962 91.2126 62.7635M18.7109 59.3824C16.4848 61.658 15.633 65.2371 16.1433 70.8188C16.9101 79.2046 14.6109 85.3043 36.0653 85.3043C53.2288 85.3043 65.6928 85.3043 69.7794 85.3043C83.5715 85.3043 92 85.3039 92 70.8188C92 67.4427 91.7615 64.8124 91.2126 62.7635M18.7109 59.3824C20.1539 65.7356 22.6087 72.0869 25.913 63.8261C27.0513 60.9805 31.7687 60.3531 32.5217 67.1304C33.3478 74.5652 41.2612 77.0402 43.2609 66.3043C45.3473 55.1027 52.3478 60.5217 52.9228 65.4815C53.263 68.4156 56.1248 69.308 58.1304 67.7687C60.5851 66.3043 60.4573 65.244 60.8566 62.7635C61.3664 59.5963 66.4939 59.5299 67.8755 62.7635C68.7964 64.9188 67.8602 69.6087 68.2469 72.0869C68.6895 78.3758 79.0423 78.0402 76.3043 66.3043C75.4783 62.7635 83.7635 57.2409 85.3913 67.7687C86.9238 77.6798 91.7307 68.2438 91.2126 62.7635" stroke="#E8D3A2" stroke-width="3.30435" stroke-linecap="round"/>
<path d="M25.9133 64.6524C20.9568 71.2611 20.1307 66.58 18.4785 60.5221C20.9568 59.1452 26.0785 56.3916 26.7394 56.3916C27.4003 56.3916 56.7539 55.8408 71.3481 55.5654C87.8698 53.9133 88.6959 58.8698 89.522 58.8698C90.3481 58.8698 92.0003 68.7829 89.522 71.2611C87.5394 73.2437 85.1162 68.5075 84.5655 65.4786C77.9568 55.5654 76.3046 68.7829 77.1307 72.0872C73.0003 80.3481 63.0872 76.2177 68.0437 63.0003C68.6633 61.3481 58.9568 60.522 59.7829 67.1307C53.835 72.4175 52.3481 66.0293 52.3481 62.1742C50.1452 59.1453 43.922 54.9047 43.2611 65.4786C42.6017 76.0295 36.4041 73.7494 32.5472 71.2773C32.5324 71.3922 32.522 71.396 32.522 71.2611C32.5304 71.2665 32.5388 71.2719 32.5472 71.2773C32.7127 69.985 33.4204 54.643 25.9133 64.6524Z" fill="#E8D3A2"/>
<path d="M30.9311 28.2607C27.7866 26.4997 29.185 21.7538 33.3772 20.7264C36.1725 20.0414 37.5946 20.0414 39.6669 20.5513V18.6715C36.1725 19.6989 34.7754 14.5619 37.2208 12.1646C39.4989 9.93143 38.7351 7.59832 38.6186 6.00012C45.8869 15.0413 42.346 18.2149 39.6669 18.6715V20.5513C43.1619 21.0688 47.0057 21.4113 49.8007 25.521C52.6623 29.7287 48.0535 36.48 44.5591 38.5348C47.0051 39.2198 50.2248 43.3524 49.8007 47.0966C49.1024 53.261 42.8125 57.0282 33.8125 55.0243C25.6899 50.5212 32.4151 47.8324 36.2584 47.1475C42.5489 45.4351 38.8607 42.664 33.8125 41.2746C28.8349 39.9047 30.9311 34.0826 37.2208 34.7676C42.1136 35.3005 41.0647 29.2881 37.2208 29.2881C34.1458 29.2881 33.3772 29.2881 30.9311 28.2607Z" fill="#D74F14"/>
<path d="M39.6669 20.5513C43.1619 21.0688 47.0057 21.4113 49.8007 25.521C52.6623 29.7287 48.0535 36.48 44.5591 38.5348C47.0051 39.2198 50.2248 43.3524 49.8007 47.0966C49.1024 53.261 42.8125 57.0282 33.8125 55.0243C25.6899 50.5212 32.4151 47.8324 36.2584 47.1475C42.5489 45.4351 38.8607 42.664 33.8125 41.2746C28.8349 39.9047 30.9311 34.0826 37.2208 34.7676C42.1136 35.3005 41.0647 29.2881 37.2208 29.2881C34.1458 29.2881 33.3772 29.2881 30.9311 28.2607C27.7866 26.4997 29.185 21.7538 33.3772 20.7264C36.1725 20.0414 37.5946 20.0414 39.6669 20.5513ZM39.6669 20.5513V18.6715M39.6669 18.6715C42.346 18.2149 45.8869 15.0413 38.6186 6.00012C38.7351 7.59832 39.4989 9.93143 37.2208 12.1646C34.7754 14.5619 36.1725 19.6989 39.6669 18.6715Z" stroke="#E8D3A2" stroke-width="3.30435" stroke-linecap="round"/>
<path fill-rule="evenodd" clip-rule="evenodd" d="M68.2232 21.185C63.554 21.185 55.6523 22.7211 55.6523 39.1067C55.6523 48.2504 58.4496 55.5654 68.2232 55.5654C80.435 55.5654 80.435 46.0559 80.435 39.1067C80.435 31.426 79.3574 21.185 68.2232 21.185ZM66.7466 11.4255C64.8769 15.9307 63.4552 19.3563 68.2232 19.3563C70.498 19.3563 73.2516 17.1618 68.2232 7.65234C67.7711 8.9569 67.243 10.2293 66.7466 11.4255ZM68.9564 31C65.9828 30.9999 63.9997 31.7253 64 38.6161C64.0002 45.2955 65.9828 45.8696 68.9564 45.8696C72.9218 45.8696 73.913 44.4301 73.913 38.6161C73.913 32.4507 71.4348 31 68.9564 31Z" fill="#D74F14"/>
<path d="M66.7466 11.4255L68.2726 12.0588L68.2726 12.0588L66.7466 11.4255ZM68.2232 7.65234L69.6838 6.88004L67.907 3.51975L66.6622 7.11129L68.2232 7.65234ZM64 38.6161L62.3478 38.6161L62.3478 38.6161L64 38.6161ZM68.9564 31L68.9564 32.6522H68.9564V31ZM57.3045 39.1067C57.3045 31.1444 59.2264 27.1935 61.325 25.1988C63.4254 23.2026 66.0423 22.8372 68.2232 22.8372V19.5328C65.7349 19.5328 62.0664 19.9355 59.0486 22.8037C56.0292 25.6735 54.0002 30.6834 54.0002 39.1067H57.3045ZM68.2232 53.9132C63.8204 53.9132 61.2374 52.3078 59.6602 49.868C57.9976 47.2961 57.3045 43.5673 57.3045 39.1067H54.0002C54.0002 43.7898 54.7057 48.2904 56.8852 51.6619C59.15 55.1655 62.8525 57.2176 68.2232 57.2176V53.9132ZM78.7828 39.1067C78.7828 42.6743 78.7532 46.3898 77.4134 49.2389C76.7713 50.6043 75.8386 51.7355 74.4517 52.5432C73.0492 53.36 71.0658 53.9132 68.2232 53.9132V57.2176C71.4866 57.2176 74.0826 56.5821 76.1146 55.3987C78.1622 54.2062 79.5192 52.5257 80.4036 50.6451C82.1167 47.0022 82.0871 42.4882 82.0871 39.1067H78.7828ZM68.2232 22.8372C70.7461 22.8372 72.5758 23.4141 73.9301 24.2917C75.2871 25.171 76.2819 26.4272 77.0102 27.9706C78.5002 31.1282 78.7828 35.2775 78.7828 39.1067H82.0871C82.0871 35.2551 81.8309 30.4436 79.9986 26.5605C79.0658 24.5836 77.7036 22.7995 75.727 21.5187C73.7477 20.236 71.2675 19.5328 68.2232 19.5328V22.8372ZM68.2232 17.7041C67.1722 17.7041 66.8079 17.5047 66.7267 17.4421C66.7045 17.425 66.7008 17.4185 66.6928 17.3993C66.679 17.3662 66.6489 17.2706 66.6479 17.0724C66.6458 16.6433 66.7769 16.0035 67.0837 15.0929C67.3837 14.2025 67.7991 13.1996 68.2726 12.0588L65.2206 10.7922C64.7592 11.904 64.2957 13.0188 63.9524 14.0377C63.6158 15.0366 63.3388 16.0979 63.3436 17.0884C63.3487 18.1388 63.6807 19.2663 64.7095 20.0592C65.6443 20.7797 66.8902 21.0085 68.2232 21.0085V17.7041ZM66.7627 8.42465C69.2473 13.1234 69.5676 15.6065 69.3412 16.7493C69.2427 17.2463 69.0547 17.4317 68.9341 17.5173C68.781 17.6258 68.542 17.7041 68.2232 17.7041V21.0085C69.0418 21.0085 70 20.8124 70.8459 20.2124C71.7243 19.5893 72.3368 18.6317 72.5826 17.3915C73.0446 15.0596 72.2276 11.6907 69.6838 6.88004L66.7627 8.42465ZM68.2726 12.0588C68.7662 10.8694 69.3134 9.55211 69.7843 8.1934L66.6622 7.11129C66.2288 8.36169 65.7199 9.58911 65.2206 10.7922L68.2726 12.0588ZM65.6522 38.616C65.652 35.2093 66.1685 33.8391 66.6331 33.2806C66.9858 32.8567 67.5212 32.6521 68.9564 32.6522L68.9564 29.3478C67.418 29.3478 65.4751 29.5059 64.0929 31.1674C62.8226 32.6943 62.3477 35.1321 62.3478 38.6161L65.6522 38.616ZM68.9564 44.2174C67.4673 44.2174 66.9369 44.0322 66.5995 43.6516C66.1708 43.168 65.6523 41.9186 65.6522 38.616L62.3478 38.6161C62.3479 41.993 62.8209 44.3704 64.1269 45.8436C65.5242 47.4199 67.4719 47.5217 68.9564 47.5217V44.2174ZM72.2609 38.6161C72.2609 40.0365 72.1993 41.1139 72.0654 41.9371C71.9309 42.7647 71.7397 43.2248 71.5582 43.4901C71.3042 43.8614 70.8231 44.2174 68.9564 44.2174V47.5217C71.0551 47.5217 73.0523 47.1581 74.2853 45.3561C74.8472 44.5348 75.1518 43.5449 75.327 42.4674C75.5029 41.3855 75.5652 40.1027 75.5652 38.6161H72.2609ZM68.9564 32.6522C69.8602 32.6522 70.5598 32.9013 71.0866 33.5436C71.669 34.2539 72.2609 35.709 72.2609 38.6161H75.5652C75.5652 35.3578 74.918 33.0048 73.6417 31.4484C72.3097 29.8241 70.531 29.3478 68.9564 29.3478V32.6522Z" fill="#E8D3A2"/>
<path d="M64 38.6161C63.9997 31.7253 65.9828 30.9999 68.9564 31C71.4348 31 73.913 32.4507 73.913 38.6161C73.913 44.4301 72.9218 45.8696 68.9564 45.8696C65.9828 45.8696 64.0002 45.2955 64 38.6161Z" stroke="#E8D3A2" stroke-width="3.30435" stroke-linecap="round"/>
</svg>
