<svg width="97" height="91" viewBox="0 0 97 91" fill="none" xmlns="http://www.w3.org/2000/svg">
<circle cx="40" cy="50" r="40" fill="#D74F14"/>
<path d="M91.5498 15.0311L51.498 6.52086C48.6541 5.91658 48.6541 5.91658 47.9491 9.23449C44.048 26.8174 36.5953 62.6712 36.065 65.1648C35.4601 68.0086 35.4607 68.0087 38.7786 68.7137L79.5413 77.3751C82.1957 77.9391 82.1483 77.929 82.7525 75.0851L94.7374 18.6808C95.3014 16.0264 95.3417 15.8368 91.5498 15.0311Z" fill="#E8D3A2" stroke="#E8D3A2" stroke-width="3.24245" stroke-linecap="round"/>
<path d="M19.9908 15.6824L41.4948 13.5639L37.0637 34.4193C26.9646 36.4842 30.567 45.1759 34.1933 47.9279L30.2655 66.4134C29.0066 72.3382 29.0066 72.3382 34.6944 73.5467L46.0698 75.9638L48.2027 76.417C42.6364 76.9681 30.6479 78.1362 27.2233 78.3993L27.1182 78.4074C23.1917 78.7093 23.0488 78.7203 22.6997 75.2089C20.989 58.0023 17.8512 22.764 17.4255 19.5958L17.4254 19.5952C16.9458 16.0262 16.9458 16.0261 19.9908 15.6824Z" fill="#D74F14" stroke="#E8D3A2" stroke-width="3.24245" stroke-miterlimit="7.6613" stroke-linecap="round"/>
<path d="M66.492 56.025L58.9083 54.4135C59.9085 53.4372 61.6097 51.0245 62.3147 47.7066C60.6409 48.5894 53.0531 50.3128 53.0158 42.5107C52.9886 36.808 66.0761 31.1673 68.5415 27.7281C69.3942 31.8723 78.4976 41.4851 76.4781 47.496C74.3496 53.8316 67.3627 50.7607 65.6328 48.4116C64.6906 51.6791 65.9035 54.9091 66.492 56.025Z" fill="#D74F14"/>
<path d="M55.717 22.6984L52.8959 22.099C53.2681 21.7354 53.9011 20.8371 54.1635 19.6019C53.5408 19.9307 50.718 20.5727 50.7046 17.6682C50.6948 15.5452 55.5638 13.4445 56.4812 12.164C56.7981 13.7067 60.1841 17.2848 59.4325 19.5227C58.6402 21.8814 56.0412 20.7386 55.3979 19.8642C55.0472 21.0806 55.4982 22.283 55.717 22.6984Z" fill="#D74F14"/>
<path d="M75.196 60.456L78.0172 61.0554C77.645 61.4189 77.012 62.3172 76.7496 63.5525C77.3723 63.2237 80.1951 62.5817 80.2085 65.4862C80.2183 67.6092 75.3493 69.7099 74.4319 70.9904C74.115 69.4476 70.729 65.8695 71.4806 63.6317C72.2728 61.273 74.8718 62.4158 75.5152 63.2902C75.8659 62.0737 75.4149 60.8713 75.196 60.456Z" fill="#D74F14"/>
<path d="M30.0933 20.4882C33.1096 22.3982 29.4495 26.8734 27.2424 28.8723C22.5893 26.6143 21.7841 24.3633 21.9631 23.5201C22.3279 19.7901 25.2021 20.8591 26.5936 21.8598C27.9282 19.6051 29.4828 20.0059 30.0933 20.4882Z" fill="#E8D3A2"/>
</svg>
