<svg width="97" height="91" viewBox="0 0 97 91" fill="none" xmlns="http://www.w3.org/2000/svg">
<circle cx="40" cy="51" r="40" fill="#D74F14"/>
<path d="M44.3471 11.2395V23.1035H50.5913C50.5913 22.4791 49.9669 15.6105 53.7134 15.6105C56.7106 15.6105 57.0436 20.6058 56.8355 23.1035H63.7041V11.2395H67.4506L53.7134 0L40.6006 11.2395H44.3471Z" fill="#E8D3A2"/>
<path d="M15 44.3336L37.4791 22.4789L48.7186 33.9017C51.0218 32.977 52.4651 31.8452 54.9628 29.9719C57.5217 28.0528 60.7907 29.7638 62.4558 31.2208L73.0709 20.6057L94.9256 41.8359L84.9349 51.8266L82.4372 58.0708L76.8174 63.6905C79.4473 66.3689 81.0635 68.6859 78.0663 71.1836C75.0691 73.6812 70.5733 68.894 68.7 66.1882C69.5326 67.8533 70.4484 71.5582 67.4512 73.0568C66.5403 73.5122 66.5905 74.0654 65.5779 73.6812L57.4605 79.9633C51.8153 85.4884 48.4478 82.2654 47.4698 79.9633C44.6194 82.5892 43.0988 82.4799 41.2256 81.7987C37.2166 80.3409 38.1002 76.5432 39.1583 74.2545C37.0316 77.034 33.4178 79.6894 31.2349 78.0522C29.2367 76.5536 30.4023 72.8487 31.2349 71.1836C29.1535 74.0975 24.6276 79.4413 21.2442 74.9301C18.247 70.9338 25.407 64.7852 29.3616 62.2104L26.2395 59.3196L24.9907 53.6998L15 44.3336Z" fill="#D74F14"/>
<path d="M24.9907 53.6998L15 44.3336L37.4791 22.4789L48.7186 33.9017M24.9907 53.6998L26.2395 59.3196L29.3616 62.2104M24.9907 53.6998L37.4791 41.3044M62.4558 31.2208C60.7907 29.7638 57.5217 28.0528 54.9628 29.9719C52.4651 31.8452 51.0218 32.977 48.7186 33.9017M62.4558 31.2208L73.0709 20.6057L94.9256 41.8359L84.9349 51.8266M62.4558 31.2208L84.9349 51.8266M84.9349 51.8266L82.4372 58.0708L76.8174 63.6905M76.8174 63.6905C79.4473 66.3689 81.0635 68.6859 78.0663 71.1836C75.0691 73.6812 70.5733 68.894 68.7 66.1882C69.5326 67.8533 70.4484 71.5582 67.4512 73.0568C66.5403 73.5122 66.5905 74.0654 65.5779 73.6812M76.8174 63.6905C76.1913 63.0528 74.9202 61.7933 74.3198 61.1929C71.8221 58.6952 59.9581 47.8719 54.3384 42.4603C53.0895 41.2115 50.3355 40.8806 45.5965 42.4603C41.85 43.7091 39.4851 42.9202 37.4791 41.3044M48.7186 33.9017C47.5067 34.3883 46.3859 34.752 45.5965 34.9673C36.8547 34.3429 36.2302 37.465 36.2302 37.465C36.2302 37.465 35.865 40.0043 37.4791 41.3044M29.3616 62.2104L43.0988 74.9301C44.5558 75.9708 47.9693 76.8033 49.9674 74.3057C52.4651 71.1836 49.9674 69.3103 49.9674 69.3103C49.9674 69.3103 51.1746 71.7207 52.7808 73.0568M29.3616 62.2104C25.407 64.7852 18.247 70.9338 21.2442 74.9301C24.6276 79.4413 29.1535 74.0975 31.2349 71.1836C30.4023 72.8487 29.2367 76.5536 31.2349 78.0522C33.7326 79.9254 38.1035 76.1789 39.9767 73.0568C41.85 69.9347 34.357 79.301 41.2256 81.7987C43.0988 82.4799 44.6194 82.5892 47.4698 79.9633M52.7808 73.0568C54.6402 74.6035 57.0342 75.9351 58.7093 74.9301C61.207 73.4315 59.75 69.7266 58.7093 68.0615C59.8684 69.6552 63.2584 72.8013 65.5779 73.6812M52.7808 73.0568C50.7786 76.3664 48.9958 78.5573 47.4698 79.9633M47.4698 79.9633C48.4478 82.2654 51.8153 85.4884 57.4605 79.9633L65.5779 73.6812" stroke="#E8D3A2" stroke-width="2.43364"/>
<path d="M37.4791 22.4789L15 44.3335L24.9907 53.6998L37.4791 41.8359C37.8954 42.2521 38.3533 42.3354 36.8547 39.3382C34.9814 35.5917 40.6012 34.9673 42.4744 34.9673C43.973 34.9673 46.8454 34.1347 48.0942 33.7184L37.4791 22.4789Z" fill="#E8D3A2"/>
<path d="M94.9258 41.8359L73.0712 20.6057L62.4561 31.2208L84.9351 51.2022L94.9258 41.8359Z" fill="#E8D3A2"/>
</svg>
