<svg width="80" height="85" viewBox="0 0 80 85" fill="none" xmlns="http://www.w3.org/2000/svg">
<circle cx="40" cy="44.5" r="40" fill="#D74F14"/>
<path d="M28.5002 5.5V1H71.5V5.5C74.5 10 75 31.5 74 38C72.9096 45.0874 73.6667 53.8333 74 59.5H55.5C55.5 57 54.6667 51.3333 54.5 50L50.5 32.5C48.8333 38.5 45.9 48 45.5 50C45.1 52 44.5 58.5 44.5 59.5H27.5C28 50 27.8335 40.6667 27.5002 38C25.5002 25.6 27.3336 11.1667 28.5002 5.5Z" fill="#E8D3A2" stroke="#E8D3A2"/>
<path d="M56.6182 21.3875V12.25H68.1574V21.3875L62.6914 23.5375L56.6182 21.3875Z" fill="#D74F14" stroke="#D74F14" stroke-width="2.24597"/>
<path d="M33.5391 21.3875V12.25H45.0783V21.3875L39.6123 23.5375L33.5391 21.3875Z" fill="#D74F14" stroke="#D74F14" stroke-width="2.24597"/>
<rect x="37.1826" y="1.5" width="2.42931" height="5.375" fill="#D74F14"/>
<rect x="61.4766" y="1.5" width="2.42931" height="5.375" fill="#D74F14"/>
<rect x="49.3311" y="1.5" width="2.42931" height="5.375" fill="#D74F14"/>
<mask id="mask0_209_182" style="mask-type:alpha" maskUnits="userSpaceOnUse" x="0" y="4" width="80" height="81">
<circle cx="40" cy="44.5" r="40" fill="#D74F14"/>
</mask>
<g mask="url(#mask0_209_182)">
<path d="M21.5 88C24.7 84.8 26.8333 67.3333 27.5 59H44.5C44.1 63.8 45.6667 80.3333 46.5 88H21.5Z" fill="#E8D3A2"/>
<path d="M53.5 88C55.5 85.6 55.6667 67.6667 55.5 59H74C74 62.5 77.6667 80.3333 80.5 88H53.5Z" fill="#E8D3A2"/>
<path d="M21.5 88C24.7 84.8 26.8333 67.3333 27.5 59H44.5C44.1 63.8 45.6667 80.3333 46.5 88H21.5Z" stroke="#E8D3A2"/>
<path d="M53.5 88C55.5 85.6 55.6667 67.6667 55.5 59H74C74 62.5 77.6667 80.3333 80.5 88H53.5Z" stroke="#E8D3A2"/>
</g>
</svg>
