<svg width="113" height="113" viewBox="0 0 113 113" fill="none" xmlns="http://www.w3.org/2000/svg">
<circle cx="40" cy="66" r="40" fill="#D74F14"/>
<path d="M69.9761 54.9797C67.0068 58.1048 65.5323 57.4659 63.8598 55.9834L59.7484 52.3389L56.0551 49.0651C52.9332 46.2978 54.9759 43.8249 56.3178 42.8726C61.1776 37.6709 60.2158 35.1065 60.6158 31.0047C60.9619 27.4563 66.1057 17.1536 75.3838 19.6791C85.0082 22.2989 87.9822 25.9634 89.8783 32.5275C91.9762 39.7897 87.6818 47.3599 80.2673 48.4243C74.2787 49.2841 73.6876 51.0733 69.9761 54.9797Z" fill="#E8D3A2" stroke="#E8D3A2" stroke-width="3.29111"/>
<path d="M66.2352 64.6856C61.438 63.3658 59.1981 60.6468 55.2923 57.1847C50.9361 53.3232 47.2882 50.0896 47.0784 46.6051C47.0085 45.4436 48.9 41.5588 50.1434 39.4264C52.2565 35.8022 50.6396 33.3458 49.8925 32.6837C49.1455 32.0215 45.8055 28.8048 38.1493 25.345C34.3187 23.614 33.2096 28.814 33.3216 30.7903L33.3218 30.7924C33.4721 33.4459 33.6034 35.7616 36.4849 44.9112C39.0655 53.1054 43.0618 57.3382 49.8346 63.3417C57.223 69.891 62.2368 73.458 69.187 74.9988C77.4573 76.8323 78.1057 77.4071 84.5863 76.2327C91.2978 75.0164 90.1198 72.1376 88.2758 69.2666C83.3136 61.5412 81.0547 59.1307 78.4338 57.9835C75.8545 56.8544 74.5977 60.2131 74.1558 60.7117L74.1556 60.7118C70.6336 64.6851 69.7709 65.6583 66.2352 64.6856Z" fill="#D74F14" stroke="#E8D3A2" stroke-width="3.29111"/>
<path d="M46.2916 68.9976C39.2218 62.7307 34.1235 55.2704 32.4389 52.3202C29.5007 54.0867 30.762 56.3728 31.5426 58.2789C32.7914 61.3286 36.2668 63.4839 37.7676 65.2999C34.3271 65.5689 26.4536 67.4126 24.3274 74.2698C22.2011 81.1271 24.2159 84.6129 28.8267 88.7001C32.9805 92.3821 37.689 95.0503 44.461 92.1169C51.233 89.1835 52.2436 81.9094 51.904 78.3706C53.2832 79.1884 55.715 81.4059 59.1716 82.77C62.3122 84.0095 63.2069 81.9298 63.2752 80.6143C60.5389 79.1601 53.3614 75.2645 46.2916 68.9976Z" fill="#E8D3A2" stroke="#E8D3A2" stroke-width="3.29111"/>
<path d="M42.3054 82.9522C39.5706 85.7398 36.3207 84.348 33.9576 82.2533C31.5945 80.1585 30.1848 77.831 32.5575 74.3115C35.071 70.5833 37.2871 71.0587 37.7295 72.9399C38.8362 76.1545 40.1431 76.5111 42.8988 77.5221C45.287 78.3984 45.4272 79.7701 42.3054 82.9522Z" fill="#D74F14" stroke="#D74F14" stroke-width="3.29111"/>
</svg>
