<svg width="95" height="80" viewBox="0 0 95 80" fill="none" xmlns="http://www.w3.org/2000/svg">
<circle cx="40" cy="40" r="40" fill="#D74F14"/>
<path d="M37.5003 35.8304L81.6497 65.2634M81.6497 65.2634V59.695M81.6497 65.2634V70.8318M75.6836 35.8304L31.5342 65.2634V59.695V70.8318" stroke="#E8D3A2" stroke-width="3.06388" stroke-linecap="round" stroke-linejoin="round"/>
<path d="M20.7959 30.66V11.1706C20.7959 5.99994 20.7959 5.99994 26.762 5.99994H86.0256C92.3895 5.99994 92.3895 5.99994 92.3895 11.1706V30.66C92.3895 35.8306 92.3895 35.8306 86.0256 35.8306H26.762C20.7959 35.8306 20.7959 35.8306 20.7959 30.66Z" fill="#E8D3A2" stroke="#E8D3A2" stroke-width="3.06388" stroke-linecap="round" stroke-linejoin="round"/>
<path d="M20 14.3527L93.1846 14.3527" stroke="#D74F14" stroke-width="3.06388" stroke-linecap="round" stroke-linejoin="round"/>
<path d="M28.751 15.148V23.8983" stroke="#D74F14" stroke-width="3.06388" stroke-linecap="round" stroke-linejoin="round"/>
<path d="M71.3086 15.1481V23.8984" stroke="#D74F14" stroke-width="3.06388" stroke-linecap="round" stroke-linejoin="round"/>
<path d="M77.6729 15.1481V23.8984" stroke="#D74F14" stroke-width="3.06388" stroke-linecap="round" stroke-linejoin="round"/>
<path d="M84.833 15.1481V23.8984" stroke="#D74F14" stroke-width="3.06388" stroke-linecap="round" stroke-linejoin="round"/>
<path d="M35.1152 15.1481V23.8984" stroke="#D74F14" stroke-width="3.06388" stroke-linecap="round" stroke-linejoin="round"/>
<path d="M53.0137 15.1481V23.8984" stroke="#D74F14" stroke-width="3.06388" stroke-linecap="round" stroke-linejoin="round"/>
<path d="M59.3779 15.1481V23.8984" stroke="#D74F14" stroke-width="3.06388" stroke-linecap="round" stroke-linejoin="round"/>
<path d="M41.4795 15.1481V23.8984" stroke="#D74F14" stroke-width="3.06388" stroke-linecap="round" stroke-linejoin="round"/>
</svg>
