<svg width="111" height="91" viewBox="0 0 111 91" fill="none" xmlns="http://www.w3.org/2000/svg">
<circle cx="40" cy="51" r="40" fill="#D74F14"/>
<path d="M23.0569 53.3106L34.2042 43.3208C34.6024 41.1897 36.0356 36.6876 38.5836 35.7286C39.1144 32.6651 40.9723 25.8187 44.1573 22.9417C48.1385 19.3454 50.5272 5.2911 50.5272 4.16088C50.5272 2.9621 55.7027 -1.4334 58.4896 7.35761C61.2764 16.1486 56.8971 21.3433 55.7027 22.9417C54.5084 24.54 52.5178 28.9355 63.6651 26.9376C74.8125 24.9396 71.2294 26.538 75.6087 26.1384C79.9881 25.7388 81.9787 26.1384 82.3768 26.1384C82.7749 26.1384 86.358 25.3392 88.7467 26.1384C91.6663 26.0052 97.7442 25.8187 98.6997 26.1384C99.8941 26.538 103.477 27.3372 103.477 29.3351C103.477 30.8415 103.529 31.4284 102.335 32.2497C104.193 32.3037 107.856 33.7306 108.653 36.1282C109.534 38.7818 109.051 40.1241 103.477 40.5237C102.681 40.9233 100.292 41.6425 97.1072 41.3229C96.1783 41.5892 93.9223 42.122 92.3298 42.122C90.7373 42.122 86.6234 43.1876 84.7655 43.7204C82.7749 44.3864 78.2375 46.0928 76.6994 45.5801C78.2375 46.6055 81.063 48.6758 80.7843 51.473C80.4641 54.6873 77.7248 56.347 73.6231 55.8343C74.6485 57.3724 76.0068 59.3045 74.4144 61.702C73.415 63.2067 70.6986 63.3004 69.6369 63.3004C68.4426 63.8332 65.2576 64.8987 62.0727 64.8987C60.2148 65.1651 55.7824 65.5381 52.9159 64.8987C49.3328 64.0996 43.361 65.2983 40.9723 72.0914C40.4415 73.6898 38.0348 75.8774 36.804 76.6186C34.8133 77.8174 29.1564 74.3156 25.1752 70.3197C21.194 66.3237 20.6682 66.8967 21.4644 62.1016C22.1014 58.2655 22.2606 54.5094 23.0569 53.3106Z" fill="#D74F14"/>
<path d="M75.6087 35.326C76.6994 35.326 81.2231 34.5438 83.8773 34.4107C86.4252 34.7303 90.2472 33.8809 91.8397 33.6145C95.0246 34.0141 97.9035 33.331 100.69 32.9314C101.376 32.8331 101.945 32.5178 102.335 32.2497M102.335 32.2497C103.529 31.4284 103.477 30.8415 103.477 29.3351C103.477 27.3372 99.8941 26.538 98.6997 26.1384C97.7442 25.8187 91.6662 26.0052 88.7467 26.1384C86.358 25.3392 82.7749 26.1384 82.3768 26.1384C81.9787 26.1384 79.9881 25.7388 75.6087 26.1384C71.2294 26.538 74.8125 24.9396 63.6651 26.9376C52.5178 28.9355 54.5084 24.54 55.7027 22.9417C56.8971 21.3433 61.2764 16.1486 58.4896 7.35761C55.7027 -1.4334 50.5272 2.9621 50.5272 4.16088C50.5272 5.2911 48.1385 19.3454 44.1573 22.9417C40.9723 25.8187 39.1144 32.6651 38.5836 35.7286C36.0356 36.6876 34.6024 41.1897 34.2042 43.3208L23.0569 53.3106C22.2606 54.5094 22.1014 58.2655 21.4644 62.1016C20.6682 66.8967 21.194 66.3237 25.1752 70.3197C29.1564 74.3156 34.8133 77.8174 36.804 76.6186C38.0348 75.8774 40.4415 73.6898 40.9723 72.0914C43.361 65.2983 49.3328 64.0996 52.9159 64.8987C55.7824 65.5381 60.2148 65.1651 62.0727 64.8987C65.2576 64.8987 68.4426 63.8332 69.6369 63.3004C70.6986 63.3004 73.415 63.2067 74.4144 61.702C76.0068 59.3045 74.6485 57.3724 73.6231 55.8343M102.335 32.2497C104.193 32.3037 107.856 33.7306 108.653 36.1282C109.534 38.7818 109.051 40.1241 103.477 40.5237C102.681 40.9233 100.292 41.6425 97.1072 41.3229C96.1783 41.5892 93.9223 42.122 92.3298 42.122C90.7373 42.122 86.6234 43.1876 84.7655 43.7204C82.7749 44.3864 78.2375 46.0928 76.6994 45.5801C78.2375 46.6055 81.063 48.6758 80.7843 51.473C80.4641 54.6873 77.7248 56.347 73.6231 55.8343M73.6231 55.8343C72.9676 55.583 72.351 55.1263 71.5723 55.0481L73.6231 55.8343Z" stroke="#E8D3A2" stroke-width="3"/>
<path d="M48.2229 67.7696L37.3966 79.1314C26.4464 75.5618 19.2907 70.387 15.7051 54.6173L28.5992 44.0054L30.2953 45.6511L27.7172 45.6511C30.4977 52.7422 35.9352 62.1795 45.0275 67.3109L46.285 65.6183L48.2229 67.7696Z" fill="#E8D3A2"/>
<path d="M28.5992 44.0054L15.7051 54.6173C19.2907 70.387 26.4464 75.5618 37.3966 79.1314L48.2229 67.7696M28.5992 44.0054L30.2953 45.6511L27.7172 45.6511M28.5992 44.0054C28.9194 45.025 27.2544 44.4709 27.7172 45.6511M48.2229 67.7696L46.285 65.6183L45.0275 67.3109M48.2229 67.7696C46.6742 67.213 46.405 68.0883 45.0275 67.3109M45.0275 67.3109C35.9352 62.1795 30.4977 52.7422 27.7172 45.6511" stroke="#E8D3A2" stroke-width="1.93815"/>
</svg>
